# xmcd
# Track frame offsets:
# 150
# 15713
# 30930
# 43711
# 58681
# 70729
# 110146
# 125440
# 142931
# 150122
# 172526
# 189866
# 203932
# 226444
# 241351
# 244484
#
# Disc length: 3659 seconds
# Revision: 0
# Processed by: cddbd v1.5.1PL0 Copyright (c) Steve Scherf et al.
# Submitted via: VisiTrax 2.9.10.228 - For more info visit www.synapsa.com
#
DISCID=ca0e4910
DTITLE=Hary Wetterstein - On Transit
DYEAR=1996
DGENRE=
TTITLE0=I Want Nothing
TTITLE1=Jealous Women
TTITLE2=In My Car
TTITLE3=Junkie Girl
TTITLE4=Change Yourself
TTITLE5=Trinity Excess
TTITLE6=Mucho Whisky
TTITLE7=Strange Land
TTITLE8=Loving Fool
TTITLE9=Traveller
TTITLE10=Speak No Spanish
TTITLE11=Rainy Days
TTITLE12=Why should I worry
TTITLE13=Whats Going On
TTITLE14=Solo Sax
TTITLE15=Rock n Roll Confusion
EXTD=
EXTT0=
EXTT1=
EXTT2=
EXTT3=
EXTT4=
EXTT5=
EXTT6=
EXTT7=
EXTT8=
EXTT9=
EXTT10=
EXTT11=
EXTT12=
EXTT13=
EXTT14=
EXTT15=
PLAYORDER=
